<?xml version="1.0" encoding="iso-8859-1"?>
<!-- Uploaded to: SVG Repo, www.svgrepo.com, Generator: SVG Repo Mixer Tools -->
<!DOCTYPE svg PUBLIC "-//W3C//DTD SVG 1.1//EN" "http://www.w3.org/Graphics/SVG/1.1/DTD/svg11.dtd">
<svg fill="#000000" version="1.1" id="Capa_1" xmlns="http://www.w3.org/2000/svg" xmlns:xlink="http://www.w3.org/1999/xlink" 
	 width="800px" height="800px" viewBox="0 0 45.908 45.908"
	 xml:space="preserve">
<g>
	<g>
		<path d="M20.833,0.141C20.198-0.107,19.5-0.024,18.937,0.36c-0.563,0.384-0.886,1.022-0.886,1.703v4.743h-7.062
			c-1.547,0-2.8,1.253-2.8,2.8v32.037c0,0.75,0.549,1.388,1.291,1.499l18.279,2.743c0.595,0.09,1.18-0.084,1.635-0.478
			c0.456-0.393,0.699-0.963,0.699-1.563v-1.567h5.205c1.338,0,2.422-1.084,2.422-2.421V7.629c0-0.544-0.334-1.032-0.84-1.229
			L20.833,0.141z M22.879,33.32c-0.113,0.13-0.275,0.202-0.444,0.202c-0.034,0-0.068-0.004-0.103-0.01l-11.186-1.968
			c-0.204-0.035-0.374-0.175-0.448-0.367c-0.075-0.192-0.042-0.411,0.084-0.574l6.242-8.037c0.313-0.402,0.792-0.631,1.291-0.632
			c0.094,0,0.189,0.008,0.284,0.025c0.597,0.104,1.086,0.532,1.272,1.108l3.124,9.684C23.06,32.949,23.016,33.164,22.879,33.32z
			 M27.229,30.824c-0.129,0.147-0.327,0.218-0.521,0.185l-2.229-0.393l-2.303-7.141l-0.028-0.087l0.288-0.371
			c0.354-0.458,0.933-0.68,1.502-0.58c0.569,0.102,1.037,0.507,1.214,1.059l2.189,6.785C27.4,30.47,27.358,30.676,27.229,30.824z
			 M34.04,39.332h-3.948v-25.34c0-1.021-0.733-1.889-1.744-2.041L13.666,9.746h19.831c0.709,0,1.281,0.573,1.281,1.281v27.57
			C34.776,39.003,34.447,39.332,34.04,39.332z"/>
	</g>
</g>
</svg>