<?xml version="1.0" encoding="utf-8"?>
<!-- Uploaded to: SVG Repo, www.svgrepo.com, Generator: SVG Repo Mixer Tools -->
<svg width="800px" height="800px" viewBox="-1 0 20 20" xmlns="http://www.w3.org/2000/svg">
  <g id="user-9" transform="translate(-3 -2)">
    <path id="secondary" fill="#2ca9bc" d="M16.29,13.19a6,6,0,0,1-8.58,0A5,5,0,0,0,4,18v1s2,2,8,2,8-2,8-2V18a5,5,0,0,0-3.71-4.81Z"/>
    <path id="primary" d="M7.46,13.26A5,5,0,0,0,4,18v1s2,2,8,2,8-2,8-2V18a5,5,0,0,0-3.51-4.75" fill="none" stroke="#000000" stroke-linecap="round" stroke-linejoin="round" stroke-width="2"/>
    <circle id="primary-2" data-name="primary" cx="6" cy="6" r="6" transform="translate(6 3)" fill="none" stroke="#000000" stroke-linecap="round" stroke-linejoin="round" stroke-width="2"/>
  </g>
</svg>